<?xml version="1.0" encoding="utf-8"?>
<!-- Generator: Adobe Illustrator 28.0.0, SVG Export Plug-In . SVG Version: 6.00 Build 0)  -->
<svg version="1.1" id="Layer_1" xmlns="http://www.w3.org/2000/svg" xmlns:xlink="http://www.w3.org/1999/xlink" x="0px" y="0px"
	 viewBox="0 0 173.52 166" style="enable-background:new 0 0 173.52 166;" xml:space="preserve">
<style type="text/css">
	.st0{fill:#2E6356;}
	.st1{fill:#FFFFFF;}
	.st2{fill:#FDFDFD;}
	.st3{clip-path:url(#SVGID_00000111893801602455469220000015552788649576896407_);fill:#FFFFFF;}
	.st4{fill:#F9F6EE;}
</style>
<path class="st0" d="M663.67-96.58c-1.75-0.73-5.3,0.28-7.06,0.46c-4.58,0.45-9.15,0.94-13.73,1.43c-4.49,0.49-8.98,0.98-13.46,1.5
	c-1.44,0.17-3,0.26-4.52,0.49c-2.82-7.41-5.23-14.97-8.48-22.21c-2.42-5.39-6.63-15.26-13.35-16.52c-3.38-0.63-7.63,2.18-10.07,4.09
	c-2.74,2.14-3.83,4.76-5.14,7.88c-4.2,9.98-8.54,19.9-12.83,29.84c-4.08,1.28-8.16,2.56-12.25,3.84c-0.46,0.14-0.94,0.31-1.43,0.49
	c-6.53,2.27-13.08,5.38-18.47,9.7c-1.58,1.27-4.79,3.66-4.7,6.05c0.12,3.01,4.5,3.44,6.69,3.8c8.12,1.34,17.22,3.72,20.43,12.27
	c1.9,5.06,0.8,10.53,0.14,15.72c-0.81,6.4-1.81,12.88-1.49,19.35c0.12,2.42,0.15,6.01,2.99,6.84c3.68,1.07,9.09-2.58,11.91-4.38
	c5.11-3.25,9.81-7.17,14.49-11c2.81-2.3,3-3.39,6.61-3.15c2.8,0.19,5.57,1.24,8.12,2.34c4.46,1.92,8.58,4.55,12.98,6.6
	c4.45,2.07,9.4,5.56,14.37,3.75c4.16-1.51,8.62-4.34,8.57-9.1c-0.06-5.24-2.17-10.17-4.17-14.91c-2.29-5.45-5.41-11.8-4.28-17.88
	c0.97-5.22,5.26-9.05,9.16-12.28c7.7-6.36,18.59-13.31,19.43-24.24C664.25-96.2,664.1-96.47,663.67-96.58z"/>
<path class="st0" d="M152.34,66.26c-4.64-8.21-15.93-11.56-24.71-12c-7.74-0.39-15.31,1.43-22.31,4.57
	c-0.08-14.65-3.06-46.69-22.81-42.86c-8.85,1.72-16.86,8.4-20.9,16.28c-4.01,7.84-4.82,16.37-5.33,24.95
	c-7.98,0.9-15.57,3.49-22.59,8.22c-8.3,5.59-22.41,21.2-14.88,31.98c3.67,5.26,11.86,6.56,17.71,6.8c1.17,0.05,13.29,0.01,13.23-0.2
	c0.14,0.5-1.01,2.16-1.25,2.63c-3.27,6.56-7.64,13.08-10.18,19.98c-0.11,0.22-0.2,0.44-0.26,0.67c-1.55,6.18-2.49,14.76,2.81,19.53
	c5.18,4.66,13.17,3.06,19.03,0.78c10.42-4.07,17.97-11.45,24.02-20.17c5.4,6.59,10.9,13.22,18.24,17.61
	c8.34,4.98,18.18,4.4,26.77,0.34c8.86-4.2,17.26-11.26,16.92-21.89c-0.34-10.74-7.55-18-15.68-23.84c4.88-2.38,9.47-5.35,13.57-8.79
	C150.61,85.05,157.46,75.32,152.34,66.26z"/>
<g>
	<path d="M518.47,26.37c0-37.28-30.22-67.5-67.5-67.5s-67.5,30.22-67.5,67.5c0,33.69,24.68,61.62,56.95,66.68V45.88h-17.14V26.37
		h17.14V11.5c0-16.92,10.08-26.26,25.5-26.26c7.39,0,15.11,1.32,15.11,1.32V3.16h-8.51c-8.39,0-11,5.2-11,10.54v12.66h18.72
		l-2.99,19.51h-15.73v47.17C493.78,87.98,518.47,60.06,518.47,26.37z"/>
	<path class="st1" d="M477.24,45.88l2.99-19.51h-18.72V13.71c0-5.34,2.61-10.54,11-10.54h8.51v-16.61c0,0-7.72-1.32-15.11-1.32
		c-15.42,0-25.5,9.34-25.5,26.26v14.87h-17.14v19.51h17.14v47.17c3.44,0.54,6.96,0.82,10.55,0.82c3.59,0,7.11-0.28,10.55-0.82V45.88
		H477.24z"/>
</g>
<g>
	<circle cx="332.88" cy="-174.02" r="67.5"/>
	<g>
		<g>
			<path class="st1" d="M332.88-208.86c11.35,0,12.69,0.04,17.17,0.25c4.14,0.19,6.39,0.88,7.89,1.46c1.98,0.77,3.4,1.69,4.89,3.18
				c1.49,1.49,2.41,2.9,3.18,4.89c0.58,1.5,1.27,3.75,1.46,7.89c0.2,4.48,0.25,5.83,0.25,17.17c0,11.35-0.04,12.69-0.25,17.17
				c-0.19,4.14-0.88,6.39-1.46,7.89c-0.77,1.98-1.69,3.4-3.18,4.89c-1.49,1.49-2.9,2.41-4.89,3.18c-1.5,0.58-3.75,1.27-7.89,1.46
				c-4.48,0.2-5.82,0.25-17.17,0.25c-11.35,0-12.69-0.04-17.17-0.25c-4.14-0.19-6.39-0.88-7.89-1.46c-1.98-0.77-3.4-1.69-4.89-3.18
				c-1.49-1.49-2.41-2.9-3.18-4.89c-0.58-1.5-1.27-3.75-1.46-7.89c-0.2-4.48-0.25-5.83-0.25-17.17c0-11.35,0.04-12.69,0.25-17.17
				c0.19-4.14,0.88-6.39,1.46-7.89c0.77-1.98,1.69-3.4,3.18-4.89c1.49-1.49,2.9-2.41,4.89-3.18c1.5-0.58,3.75-1.27,7.89-1.46
				C320.19-208.82,321.53-208.86,332.88-208.86 M332.88-216.52c-11.54,0-12.99,0.05-17.52,0.26c-4.52,0.21-7.61,0.92-10.32,1.98
				c-2.79,1.09-5.16,2.54-7.53,4.9c-2.36,2.36-3.82,4.73-4.9,7.53c-1.05,2.7-1.77,5.79-1.98,10.32c-0.21,4.53-0.26,5.98-0.26,17.52
				c0,11.54,0.05,12.99,0.26,17.52c0.21,4.52,0.92,7.61,1.98,10.32c1.09,2.79,2.54,5.16,4.9,7.53c2.36,2.36,4.73,3.82,7.53,4.9
				c2.7,1.05,5.79,1.77,10.32,1.98c4.53,0.21,5.98,0.26,17.52,0.26s12.99-0.05,17.52-0.26c4.52-0.21,7.61-0.92,10.32-1.98
				c2.79-1.09,5.16-2.54,7.53-4.9c2.36-2.36,3.82-4.73,4.9-7.53c1.05-2.7,1.77-5.79,1.98-10.32c0.21-4.53,0.26-5.98,0.26-17.52
				s-0.05-12.99-0.26-17.52c-0.21-4.52-0.92-7.61-1.98-10.32c-1.09-2.79-2.54-5.16-4.9-7.53c-2.36-2.36-4.73-3.82-7.53-4.9
				c-2.7-1.05-5.79-1.77-10.32-1.98C345.87-216.47,344.42-216.52,332.88-216.52L332.88-216.52z"/>
			<path class="st1" d="M332.88-195.84c-12.05,0-21.82,9.77-21.82,21.82c0,12.05,9.77,21.82,21.82,21.82s21.82-9.77,21.82-21.82
				C354.7-186.07,344.93-195.84,332.88-195.84z M332.88-159.85c-7.82,0-14.17-6.34-14.17-14.17s6.34-14.17,14.17-14.17
				c7.82,0,14.17,6.34,14.17,14.17S340.7-159.85,332.88-159.85z"/>
			<circle class="st1" cx="355.56" cy="-196.7" r="5.1"/>
		</g>
	</g>
</g>
<g>
	<circle cx="524.26" cy="-181.76" r="67.5"/>
	<g>
		<g>
			<path class="st2" d="M529.48-190.97c1.11-1.25,2.02-2.51,3.16-3.58c3.5-3.3,7.64-4.96,12.48-4.92c2.66,0.02,5.28,0.21,7.84,0.95
				c5.86,1.69,9.26,5.73,10.89,11.45c1.22,4.29,1.44,8.7,1.45,13.12c0.02,9.32-0.03,18.65-0.01,27.97c0,0.87-0.24,1.1-1.1,1.1
				c-4.8-0.04-9.61-0.04-14.41,0c-0.85,0.01-1.03-0.25-1.03-1.05c0.03-8.87,0.03-17.74,0-26.62c-0.01-2.22-0.15-4.45-0.77-6.61
				c-1.15-3.98-4-6.01-8.17-5.79c-5.7,0.3-8.66,3.12-9.39,8.91c-0.17,1.38-0.26,2.77-0.25,4.16c0.01,8.63-0.01,17.26,0.02,25.89
				c0,0.86-0.21,1.11-1.09,1.11c-4.84-0.04-9.68-0.04-14.52,0c-0.78,0.01-1-0.2-1-0.99c0.02-17.08,0.02-34.17,0-51.25
				c0-0.85,0.28-1.04,1.08-1.04c4.59,0.03,9.19,0.04,13.78,0c0.85-0.01,1.06,0.27,1.05,1.07
				C529.45-195.05,529.48-193.01,529.48-190.97z"/>
			<path class="st2" d="M503.16-171.45c0,8.45-0.01,16.9,0.02,25.35c0,0.94-0.23,1.22-1.2,1.21c-4.8-0.05-9.6-0.04-14.41-0.01
				c-0.77,0.01-1-0.19-1-0.98c0.02-17.11,0.02-34.22,0-51.34c0-0.71,0.17-0.96,0.92-0.96c4.87,0.03,9.74,0.04,14.61-0.01
				c0.94-0.01,1.06,0.35,1.06,1.16C503.16-188.49,503.16-179.97,503.16-171.45z"/>
			<path class="st2" d="M504.49-215.12c0.01,5.31-4.3,9.63-9.6,9.63c-5.23,0-9.57-4.32-9.59-9.55c-0.02-5.28,4.32-9.63,9.61-9.63
				C500.16-224.65,504.48-220.35,504.49-215.12z"/>
		</g>
	</g>
</g>
<g>
	<path d="M194.07-168.14c0-37.28-30.22-67.5-67.5-67.5s-67.5,30.22-67.5,67.5c0,33.69,24.68,61.62,56.95,66.68v-47.17H98.89v-19.51
		h17.14v-14.87c0-16.92,10.08-26.26,25.5-26.26c7.39,0,15.11,1.32,15.11,1.32v16.61h-8.51c-8.38,0-11,5.2-11,10.54v12.66h18.72
		l-2.99,19.51h-15.73v47.17C169.39-106.52,194.07-134.44,194.07-168.14z"/>
	<path class="st1" d="M152.85-148.62l2.99-19.51h-18.72v-12.66c0-5.34,2.62-10.54,11-10.54h8.51v-16.61c0,0-7.72-1.32-15.11-1.32
		c-15.42,0-25.5,9.34-25.5,26.26v14.87H98.89v19.51h17.14v47.17c3.44,0.54,6.96,0.82,10.55,0.82c3.59,0,7.11-0.28,10.55-0.82v-47.17
		H152.85z"/>
</g>
<path d="M463.59,159.25c-37.28,0-67.5,30.22-67.5,67.5c0,33.69,24.68,61.62,56.95,66.68c3.44,0.54,6.96,0.82,10.55,0.82
	s7.11-0.28,10.55-0.82c32.27-5.06,56.95-32.99,56.95-66.68C531.09,189.47,500.87,159.25,463.59,159.25z"/>
<rect x="194.07" y="-243.7" width="73.32" height="134.27"/>
<g>
	<defs>
		<rect id="SVGID_1_" x="58.01" y="56.63" width="62.62" height="67.92"/>
	</defs>
	<clipPath id="SVGID_00000013891777417335694270000003563364413769102759_">
		<use xlink:href="#SVGID_1_"  style="overflow:visible;"/>
	</clipPath>
	<path style="clip-path:url(#SVGID_00000013891777417335694270000003563364413769102759_);fill:#FFFFFF;" d="M67.34,73.59
		c1.38-5.36,5.58-9.28,11.81-9.28c6.02,0,10.15,3.84,11.38,9.28H67.34z M111.29,94.48h8.26c-1.45-7.25-7.17-12.11-17.39-12.11
		c-7.45,0-13.13,2.58-15.54,7.23c-1.98,1.33-4.47,2.04-7.24,2.04c-6.67,0-11.81-4.06-12.46-11.38H99.3
		c0.8-13.12-7.32-23.05-20.15-23.05c-12.03,0-20.58,8.84-20.58,20.88S67.2,98.82,79.3,98.82c2.22,0,4.39-0.3,6.43-0.89
		c1.3,4.52,6.11,6.49,15.49,8.8c6.67,1.6,10.44,2.1,10.44,5.44c0,2.97-3.26,4.57-8.55,4.57c-6.88,0-10.15-2.03-11.38-6.45h-8.33
		c1.52,8.63,9.06,13.7,19.57,13.7c9.42,0,17.1-4.21,17.1-12.76c0-7.76-6.23-9.64-17.03-12.18c-6.96-1.67-9.42-2.32-9.42-4.86
		c0-0.3,0.05-0.58,0.13-0.86c0.44-0.94,1.14-1.71,2.1-2.46c1.44-0.79,3.54-1.25,6.18-1.25C107.09,89.62,110.13,91.22,111.29,94.48z"
		/>
</g>
<rect x="148.16" y="341.92" class="st0" width="165.14" height="191.76"/>
<path d="M611.09,202.43c-3.96-7.01-13.59-9.86-21.09-10.24c-6.61-0.33-13.06,1.22-19.03,3.9c-0.07-12.5-2.61-39.84-19.47-36.57
	c-7.55,1.46-14.39,7.17-17.83,13.89c-3.42,6.69-4.11,13.96-4.54,21.29c-6.81,0.77-13.29,2.98-19.28,7.01
	c-7.08,4.77-19.12,18.09-12.7,27.29c3.13,4.49,10.12,5.6,15.12,5.8c1,0.04,11.34,0.01,11.28-0.17c0.12,0.43-0.87,1.84-1.07,2.25
	c-2.79,5.6-6.52,11.16-8.68,17.05c-0.09,0.19-0.17,0.38-0.22,0.57c-1.32,5.28-2.13,12.59,2.39,16.66
	c4.42,3.98,11.24,2.61,16.24,0.66c8.89-3.47,15.33-9.77,20.5-17.21c4.61,5.62,9.3,11.28,15.57,15.02
	c7.12,4.25,15.51,3.76,22.84,0.29c7.56-3.58,14.72-9.61,14.43-18.68c-0.29-9.17-6.44-15.36-13.38-20.34
	c4.16-2.03,8.08-4.56,11.58-7.5C609.61,218.47,615.46,210.16,611.09,202.43z M600.11,219.16c-2.58,5.67-7.86,8.09-13.61,9.31
	c-1.35,0.29-11.11,5.25-8.55,6.91c6.31,4.1,12.71,8.91,15.23,16.32c1.15,3.38,1.49,7.09,0.33,10.52c-0.33,0.97-0.79,2.15-1.48,3.03
	c0.18-0.49-1.91,0.31-2.81,0.33c-13.48,0.33-22.02-14.01-29.82-22.91c-1.93-2.2-10,3.5-10.93,5.29c-1.9,3.66-3.88,7.29-6.19,10.71
	c-1.73,2.56-4.07,6.58-7.06,7.62c-3.95,1.38-8.49-1.03-10.18-4.6c-1.86-3.93-1.15-8.59-0.14-12.64c1.26-3.62,3.48-7.08,5.24-10.48
	c1.28-2.48,4.56-6.59,4.74-9.44c0.11-0.42-0.04-0.69-0.47-0.81c-9.45-1.49-31.48,1.65-26.68-14.71c1.15-3.92,3.67-9.31,7.69-10.95
	c4.1-1.68,9.51-1.34,13.81-0.99c2.62,0.22,10.65-3.12,10.86-6.27c0.42-6.24,0.38-12.6,1.77-18.72c0.81-3.57,2.79-6.5,3.83-9.87
	c0-0.01,0.01-0.01,0.01-0.02c0.9,0.37,2.6,0.75,3.2,1.16c10.22,6.92,10.95,25.1,10.73,35.9c-0.05,2.36,5.96-0.85,6.54-1.21
	c8.92-5.53,23.28-4.25,31.03,3.02C601,209.22,602.33,214.29,600.11,219.16z"/>
<rect x="-509.09" y="10.4" style="fill:none;" width="185.14" height="25.28"/>
<text transform="matrix(1 0 0 1 -509.0862 28.992)" style="font-family:'NHaasGroteskDSPro-65Md'; font-size:26px;">Aura Magazine</text>
<rect x="-486.16" y="-147.42" style="fill:none;" width="374.46" height="66.81"/>
<text transform="matrix(1 0 0 1 -486.16 -137.0615)"><tspan x="0" y="0" style="font-family:'Synthese-Book'; font-size:14px;">Aura is a monthly magazine that discusses fashion, </tspan><tspan x="0" y="16.8" style="font-family:'Synthese-Book'; font-size:14px;">culture, and politics.</tspan></text>
<rect x="-578.07" y="-225.97" style="fill:none;" width="374.46" height="33.41"/>
<text transform="matrix(1 0 0 1 -578.0741 -215.9757)"><tspan x="0" y="0" style="font-family:'AktivGroteskArbc-Regular'; font-size:14px;">Aura is a monthly magazine that discusses fashion, culture, </tspan><tspan x="0" y="16.8" style="font-family:'AktivGroteskArbc-Regular'; font-size:14px;">and politics.</tspan></text>
<rect x="-506.59" y="-190.72" style="fill:none;" width="374.46" height="33.41"/>
<text transform="matrix(1 0 0 1 -506.5873 -180.7208)"><tspan x="0" y="0" style="font-family:'AktivGroteskArbc-Regular'; font-size:14px;">Aura is a monthly magazine that discusses fashion, culture, </tspan><tspan x="0" y="16.8" style="font-family:'AktivGroteskArbc-Regular'; font-size:14px;">and politics.</tspan></text>
<rect x="-506.59" y="43.75" style="fill:none;" width="374.46" height="66.81"/>
<text transform="matrix(1 0 0 1 -506.5873 53.7501)"><tspan x="0" y="0" style="font-family:'AktivGrotesk-Regular'; font-size:14px;">Aura is a monthly magazine that discusses fashion, culture, </tspan><tspan x="0" y="16.8" style="font-family:'AktivGrotesk-Regular'; font-size:14px;">and politics.</tspan></text>
<path class="st0" d="M-182.16,270.7h-267.15c-30.6,0-55.41-24.81-55.41-55.41v0c0-30.6,24.81-55.41,55.41-55.41h267.15
	c30.6,0,55.41,24.81,55.41,55.41v0C-126.75,245.89-151.56,270.7-182.16,270.7z"/>
<g>
	<path class="st4" d="M-432.83,194.84h25.87v4.54h-20.72v12.54h19.6v4.59h-19.6v13.78h21.78l-0.84,4.54h-26.1V194.84z"/>
	<path class="st4" d="M-400.24,205.88h4.82v4.42c1.31-1.79,2.74-3.13,4.31-4c1.57-0.88,3.17-1.32,4.82-1.32
		c2.17,0,3.91,0.47,5.24,1.4c1.32,0.93,2.3,2.28,2.94,4.03c1.31-1.79,2.8-3.14,4.48-4.06c1.68-0.91,3.47-1.37,5.38-1.37
		c2.84,0,5.03,0.78,6.58,2.32c1.55,1.55,2.32,4.04,2.32,7.48v20.05h-4.87V215.9c0-1.31-0.11-2.4-0.34-3.28
		c-0.22-0.88-0.55-1.57-0.98-2.07c-0.43-0.5-0.96-0.86-1.6-1.06c-0.64-0.21-1.36-0.31-2.18-0.31c-0.86,0-1.76,0.15-2.69,0.45
		c-0.93,0.3-1.85,0.82-2.74,1.57c-0.75,0.64-1.36,1.4-1.85,2.3c-0.49,0.9-0.73,1.92-0.73,3.08v18.26h-4.87v-18.87
		c0-2.54-0.44-4.3-1.32-5.29c-0.88-0.99-2.14-1.48-3.78-1.48c-1.9,0-3.7,0.78-5.38,2.35c-0.64,0.6-1.24,1.36-1.82,2.3
		c-0.58,0.93-0.87,2.18-0.87,3.75v17.25h-4.87V205.88z"/>
	<path class="st4" d="M-333.99,230.85c-1.05,1.27-2.37,2.36-3.98,3.28c-1.61,0.92-3.6,1.37-5.99,1.37c-1.46,0-2.79-0.18-4-0.53
		c-1.21-0.35-2.26-0.9-3.14-1.62c-0.88-0.73-1.56-1.63-2.04-2.72c-0.49-1.08-0.73-2.35-0.73-3.81c0-1.98,0.42-3.58,1.26-4.82
		c0.84-1.23,1.96-2.2,3.36-2.91s2.98-1.21,4.73-1.51c1.75-0.3,3.56-0.48,5.43-0.56l4.98-0.17v-1.12c0-2.46-0.52-4.24-1.57-5.32
		c-1.05-1.08-2.74-1.62-5.1-1.62c-2.31,0-4.01,0.38-5.1,1.15c-1.08,0.77-1.79,1.82-2.13,3.16l-4.42-0.5
		c0.52-2.65,1.77-4.58,3.75-5.8c1.98-1.21,4.67-1.82,8.06-1.82c2.09,0,3.85,0.25,5.29,0.76c1.44,0.5,2.6,1.22,3.5,2.16
		c0.9,0.93,1.54,2.09,1.93,3.47c0.39,1.38,0.59,2.93,0.59,4.65v18.82h-4.7V230.85z M-334.1,220.32l-4.65,0.17
		c-1.98,0.08-3.62,0.26-4.93,0.56c-1.31,0.3-2.34,0.7-3.11,1.2c-0.77,0.5-1.31,1.13-1.62,1.88c-0.32,0.75-0.48,1.61-0.48,2.58
		c0,1.46,0.44,2.62,1.32,3.5c0.88,0.88,2.32,1.32,4.34,1.32c2.87,0,5.11-0.71,6.72-2.13c1.6-1.42,2.41-3.36,2.41-5.82V220.32z"/>
	<path class="st4" d="M-321.95,194.84h5.21v5.66h-5.21V194.84z M-321.78,205.88h4.87v28.95h-4.87V205.88z"/>
	<path class="st4" d="M-309.18,194.84h4.87v39.98h-4.87V194.84z"/>
	<path class="st4" d="M-284.21,205.88h4.82v4.42c1.31-1.79,2.74-3.13,4.31-4c1.57-0.88,3.17-1.32,4.82-1.32
		c2.17,0,3.91,0.47,5.24,1.4c1.32,0.93,2.3,2.28,2.94,4.03c1.31-1.79,2.8-3.14,4.48-4.06c1.68-0.91,3.47-1.37,5.38-1.37
		c2.84,0,5.03,0.78,6.58,2.32c1.55,1.55,2.32,4.04,2.32,7.48v20.05h-4.87V215.9c0-1.31-0.11-2.4-0.34-3.28
		c-0.22-0.88-0.55-1.57-0.98-2.07c-0.43-0.5-0.96-0.86-1.6-1.06c-0.64-0.21-1.36-0.31-2.18-0.31c-0.86,0-1.76,0.15-2.69,0.45
		c-0.93,0.3-1.85,0.82-2.74,1.57c-0.75,0.64-1.36,1.4-1.85,2.3c-0.49,0.9-0.73,1.92-0.73,3.08v18.26h-4.87v-18.87
		c0-2.54-0.44-4.3-1.32-5.29c-0.88-0.99-2.14-1.48-3.78-1.48c-1.9,0-3.7,0.78-5.38,2.35c-0.64,0.6-1.24,1.36-1.82,2.3
		c-0.58,0.93-0.87,2.18-0.87,3.75v17.25h-4.87V205.88z"/>
	<path class="st4" d="M-210.96,226.71c-0.49,2.8-1.73,5-3.72,6.61c-2,1.6-4.86,2.41-8.6,2.41c-4.41,0-7.78-1.33-10.14-4
		s-3.53-6.39-3.53-11.17c0-2.5,0.34-4.72,1.01-6.66s1.61-3.57,2.83-4.87c1.21-1.31,2.66-2.3,4.34-3c1.68-0.69,3.51-1.04,5.49-1.04
		c2.24,0,4.16,0.36,5.77,1.06c1.6,0.71,2.92,1.69,3.95,2.94c1.03,1.25,1.79,2.74,2.3,4.45c0.5,1.72,0.76,3.6,0.76,5.66v2.46h-21.5
		c0,1.46,0.2,2.81,0.59,4.06c0.39,1.25,0.95,2.33,1.68,3.25c0.73,0.92,1.63,1.63,2.72,2.16c1.08,0.52,2.33,0.78,3.75,0.78
		c2.43,0,4.2-0.46,5.32-1.37c1.12-0.92,1.88-2.16,2.3-3.72H-210.96z M-215.38,217.92c0-1.38-0.15-2.63-0.45-3.75
		c-0.3-1.12-0.77-2.08-1.4-2.88c-0.64-0.8-1.46-1.43-2.46-1.88c-1.01-0.45-2.22-0.67-3.64-0.67c-2.58,0-4.58,0.78-6.02,2.35
		c-1.44,1.57-2.29,3.85-2.55,6.83H-215.38z"/>
	<path class="st4" d="M-204.07,228.33h5.43v6.5h-5.43V228.33z M-203.85,194.84h4.98l-0.17,28.5h-4.65L-203.85,194.84z"/>
</g>
<path class="st0" d="M-190.37,589.09h-267.15c-30.6,0-55.41-24.81-55.41-55.41v0c0-30.6,24.81-55.41,55.41-55.41h267.15
	c30.6,0,55.41,24.81,55.41,55.41v0C-134.96,564.28-159.77,589.09-190.37,589.09z"/>
<rect x="-466" y="509.67" style="fill:none;" width="284.12" height="48.02"/>
<text transform="matrix(1 0 0 1 -445.0964 557.6564)" class="st4" style="font-family:'AktivGrotesk-Regular'; font-size:56px;">Email me!</text>
<rect x="-578.07" y="359.01" style="fill:none;" width="284.12" height="48.02"/>
<text transform="matrix(1 0 0 1 -557.1664 407.0002)" class="st4" style="font-family:'AktivGrotesk-Regular'; font-size:56px;">Email me!</text>
</svg>
